<svg xmlns="http://www.w3.org/2000/svg" xmlns:xlink="http://www.w3.org/1999/xlink" width="1920" zoomAndPan="magnify" viewBox="0 0 1440 374.999991" height="500" preserveAspectRatio="xMidYMid meet" version="1.0"><defs><g/></defs><rect x="-144" width="1728" fill="#ffffff" y="-37.499999" height="449.999989" fill-opacity="1"/><rect x="-144" width="1728" fill="#ffffff" y="-37.499999" height="449.999989" fill-opacity="1"/><rect x="-144" width="1728" fill="#ffffff" y="-37.499999" height="449.999989" fill-opacity="1"/><g fill="#002a5c" fill-opacity="1"><g transform="translate(90.598059, 318.513025)"><g><path d="M 14 0 L 14 -8.625 L 43.515625 -10.546875 L 43.515625 -263 L 14 -264.921875 L 14 -273.546875 L 116.171875 -273.546875 C 130.359375 -273.546875 143.171875 -272.332031 154.609375 -269.90625 C 166.046875 -267.476562 176.265625 -263.644531 185.265625 -258.40625 C 194.273438 -253.164062 201.238281 -246.101562 206.15625 -237.21875 C 211.082031 -228.34375 213.546875 -217.832031 213.546875 -205.6875 C 213.546875 -183.832031 206.195312 -166.800781 191.5 -154.59375 C 176.800781 -142.394531 156.929688 -134.503906 131.890625 -130.921875 L 131.890625 -130.546875 C 142.617188 -130.421875 151.910156 -128.695312 159.765625 -125.375 C 167.628906 -122.050781 173.894531 -117.800781 178.5625 -112.625 C 183.226562 -107.445312 187.671875 -100.769531 191.890625 -92.59375 C 194.703125 -86.96875 198.691406 -78.367188 203.859375 -66.796875 C 209.035156 -55.234375 214.179688 -44.976562 219.296875 -36.03125 C 223.390625 -28.75 227.671875 -23.128906 232.140625 -19.171875 C 236.617188 -15.210938 240.390625 -12.785156 243.453125 -11.890625 C 246.523438 -10.992188 250.039062 -10.546875 254 -10.546875 L 254 0 L 222.171875 0 C 212.460938 0 204.796875 -0.601562 199.171875 -1.8125 C 193.546875 -3.03125 187.953125 -5.9375 182.390625 -10.53125 C 176.835938 -15.132812 171.890625 -21.492188 167.546875 -29.609375 C 163.203125 -37.734375 155.789062 -54.703125 145.3125 -80.515625 C 143.769531 -84.347656 141.5625 -89.296875 138.6875 -95.359375 C 135.8125 -101.429688 133.316406 -106.035156 131.203125 -109.171875 C 129.097656 -112.304688 126.609375 -115.597656 123.734375 -119.046875 C 120.859375 -122.492188 117.921875 -124.953125 114.921875 -126.421875 C 111.921875 -127.890625 108.757812 -128.625 105.4375 -128.625 C 99.8125 -128.625 95.53125 -128.5625 92.59375 -128.4375 L 92.59375 -10.546875 L 122.109375 -8.625 L 122.109375 0 Z M 92.59375 -139.359375 C 94 -139.234375 96.617188 -139.171875 100.453125 -139.171875 C 123.203125 -139.171875 139.207031 -144.695312 148.46875 -155.75 C 157.726562 -166.800781 162.359375 -183.320312 162.359375 -205.3125 C 162.359375 -216.300781 161.046875 -225.628906 158.421875 -233.296875 C 155.804688 -240.960938 152.070312 -246.90625 147.21875 -251.125 C 142.363281 -255.34375 136.992188 -258.34375 131.109375 -260.125 C 125.234375 -261.914062 118.523438 -262.8125 110.984375 -262.8125 C 106.003906 -262.8125 99.875 -262.300781 92.59375 -261.28125 Z M 92.59375 -139.359375 "/></g></g></g><g fill="#f96806" fill-opacity="1"><g transform="translate(16.69007, 294.787722)"><g><path d="M 11.515625 0 L 11.515625 -7.09375 L 35.828125 -8.671875 L 35.828125 -216.515625 L 11.515625 -218.09375 L 11.515625 -225.1875 L 95.625 -225.1875 C 107.300781 -225.1875 117.847656 -224.1875 127.265625 -222.1875 C 136.679688 -220.1875 145.097656 -217.03125 152.515625 -212.71875 C 159.929688 -208.40625 165.664062 -202.59375 169.71875 -195.28125 C 173.769531 -187.96875 175.796875 -179.316406 175.796875 -169.328125 C 175.796875 -151.335938 169.742188 -137.316406 157.640625 -127.265625 C 145.546875 -117.222656 129.191406 -110.726562 108.578125 -107.78125 L 108.578125 -107.46875 C 117.410156 -107.363281 125.0625 -105.941406 131.53125 -103.203125 C 138 -100.472656 143.148438 -96.972656 146.984375 -92.703125 C 150.828125 -88.441406 154.488281 -82.945312 157.96875 -76.21875 C 160.28125 -71.59375 163.566406 -64.519531 167.828125 -55 C 172.085938 -45.476562 176.320312 -37.035156 180.53125 -29.671875 C 183.894531 -23.671875 187.414062 -19.039062 191.09375 -15.78125 C 194.78125 -12.519531 197.882812 -10.519531 200.40625 -9.78125 C 202.9375 -9.039062 205.832031 -8.671875 209.09375 -8.671875 L 209.09375 0 L 182.890625 0 C 174.898438 0 168.585938 -0.5 163.953125 -1.5 C 159.328125 -2.5 154.722656 -4.890625 150.140625 -8.671875 C 145.566406 -12.460938 141.492188 -17.695312 137.921875 -24.375 C 134.347656 -31.0625 128.25 -45.03125 119.625 -66.28125 C 118.351562 -69.4375 116.535156 -73.507812 114.171875 -78.5 C 111.804688 -83.5 109.753906 -87.285156 108.015625 -89.859375 C 106.285156 -92.441406 104.234375 -95.15625 101.859375 -98 C 99.492188 -100.84375 97.070312 -102.867188 94.59375 -104.078125 C 92.125 -105.285156 89.523438 -105.890625 86.796875 -105.890625 C 82.160156 -105.890625 78.632812 -105.835938 76.21875 -105.734375 L 76.21875 -8.671875 L 100.515625 -7.09375 L 100.515625 0 Z M 76.21875 -114.71875 C 77.375 -114.613281 79.53125 -114.5625 82.6875 -114.5625 C 101.414062 -114.5625 114.59375 -119.113281 122.21875 -128.21875 C 129.84375 -137.320312 133.65625 -150.921875 133.65625 -169.015625 C 133.65625 -178.054688 132.578125 -185.734375 130.421875 -192.046875 C 128.265625 -198.359375 125.1875 -203.25 121.1875 -206.71875 C 117.195312 -210.195312 112.78125 -212.671875 107.9375 -214.140625 C 103.101562 -215.617188 97.582031 -216.359375 91.375 -216.359375 C 87.269531 -216.359375 82.21875 -215.9375 76.21875 -215.09375 Z M 76.21875 -114.71875 "/></g></g></g><g fill="#f96806" fill-opacity="1"><g transform="translate(363.834636, 235.747898)"><g><path d="M 5.609375 0 L 5.609375 -3.453125 L 17.421875 -4.21875 L 17.421875 -105.328125 L 5.609375 -106.09375 L 5.609375 -109.546875 L 46.515625 -109.546875 C 52.203125 -109.546875 57.332031 -109.054688 61.90625 -108.078125 C 66.488281 -107.109375 70.582031 -105.570312 74.1875 -103.46875 C 77.800781 -101.375 80.59375 -98.546875 82.5625 -94.984375 C 84.53125 -91.429688 85.515625 -87.226562 85.515625 -82.375 C 85.515625 -73.625 82.570312 -66.800781 76.6875 -61.90625 C 70.800781 -57.019531 62.84375 -53.863281 52.8125 -52.4375 L 52.8125 -52.28125 C 57.113281 -52.226562 60.835938 -51.535156 63.984375 -50.203125 C 67.128906 -48.867188 69.632812 -47.164062 71.5 -45.09375 C 73.375 -43.019531 75.15625 -40.347656 76.84375 -37.078125 C 77.96875 -34.828125 79.566406 -31.382812 81.640625 -26.75 C 83.710938 -22.125 85.773438 -18.019531 87.828125 -14.4375 C 89.460938 -11.519531 91.175781 -9.265625 92.96875 -7.671875 C 94.757812 -6.085938 96.269531 -5.113281 97.5 -4.75 C 98.726562 -4.394531 100.132812 -4.21875 101.71875 -4.21875 L 101.71875 0 L 88.96875 0 C 85.082031 0 82.015625 -0.238281 79.765625 -0.71875 C 77.515625 -1.207031 75.273438 -2.375 73.046875 -4.21875 C 70.816406 -6.0625 68.832031 -8.609375 67.09375 -11.859375 C 65.351562 -15.109375 62.382812 -21.898438 58.1875 -32.234375 C 57.570312 -33.773438 56.6875 -35.757812 55.53125 -38.1875 C 54.382812 -40.625 53.390625 -42.46875 52.546875 -43.71875 C 51.703125 -44.96875 50.703125 -46.285156 49.546875 -47.671875 C 48.398438 -49.054688 47.222656 -50.039062 46.015625 -50.625 C 44.816406 -51.21875 43.550781 -51.515625 42.21875 -51.515625 C 39.96875 -51.515625 38.253906 -51.488281 37.078125 -51.4375 L 37.078125 -4.21875 L 48.90625 -3.453125 L 48.90625 0 Z M 37.078125 -55.8125 C 37.640625 -55.757812 38.6875 -55.734375 40.21875 -55.734375 C 49.332031 -55.734375 55.742188 -57.945312 59.453125 -62.375 C 63.160156 -66.800781 65.015625 -73.414062 65.015625 -82.21875 C 65.015625 -86.613281 64.488281 -90.347656 63.4375 -93.421875 C 62.394531 -96.492188 60.898438 -98.875 58.953125 -100.5625 C 57.015625 -102.25 54.867188 -103.453125 52.515625 -104.171875 C 50.160156 -104.890625 47.472656 -105.25 44.453125 -105.25 C 42.453125 -105.25 39.992188 -105.046875 37.078125 -104.640625 Z M 37.078125 -55.8125 "/></g></g></g><g fill="#f96806" fill-opacity="1"><g transform="translate(463.716845, 235.747898)"><g><path d="M 7.375 -54.421875 C 7.375 -64.960938 9.265625 -74.582031 13.046875 -83.28125 C 16.835938 -91.988281 22.40625 -98.988281 29.75 -104.28125 C 37.09375 -109.582031 45.550781 -112.234375 55.125 -112.234375 C 69.550781 -112.234375 81.175781 -107.140625 90 -96.953125 C 98.832031 -86.773438 103.25 -73.421875 103.25 -56.890625 C 103.25 -50.847656 102.644531 -44.984375 101.4375 -39.296875 C 100.238281 -33.617188 98.359375 -28.234375 95.796875 -23.140625 C 93.242188 -18.046875 90.132812 -13.59375 86.46875 -9.78125 C 82.8125 -5.96875 78.320312 -2.9375 73 -0.6875 C 67.675781 1.5625 61.867188 2.6875 55.578125 2.6875 C 40.585938 2.6875 28.804688 -2.53125 20.234375 -12.96875 C 11.660156 -23.414062 7.375 -37.234375 7.375 -54.421875 Z M 27.9375 -56.109375 C 27.9375 -46.035156 28.9375 -36.941406 30.9375 -28.828125 C 32.9375 -20.710938 36.019531 -14.132812 40.1875 -9.09375 C 44.351562 -4.050781 49.332031 -1.53125 55.125 -1.53125 C 63.71875 -1.53125 70.457031 -6.519531 75.34375 -16.5 C 80.226562 -26.476562 82.671875 -39.734375 82.671875 -56.265625 C 82.671875 -73.460938 80.28125 -86.382812 75.5 -95.03125 C 70.71875 -103.6875 64.078125 -108.015625 55.578125 -108.015625 C 52.609375 -108.015625 49.78125 -107.398438 47.09375 -106.171875 C 44.40625 -104.941406 41.882812 -102.96875 39.53125 -100.25 C 37.175781 -97.539062 35.15625 -94.203125 33.46875 -90.234375 C 31.78125 -86.273438 30.4375 -81.375 29.4375 -75.53125 C 28.4375 -69.695312 27.9375 -63.222656 27.9375 -56.109375 Z M 27.9375 -56.109375 "/></g></g></g><g fill="#f96806" fill-opacity="1"><g transform="translate(575.265988, 235.747898)"><g><path d="M 7.375 -54.421875 C 7.375 -64.960938 9.265625 -74.582031 13.046875 -83.28125 C 16.835938 -91.988281 22.40625 -98.988281 29.75 -104.28125 C 37.09375 -109.582031 45.550781 -112.234375 55.125 -112.234375 C 69.550781 -112.234375 81.175781 -107.140625 90 -96.953125 C 98.832031 -86.773438 103.25 -73.421875 103.25 -56.890625 C 103.25 -50.847656 102.644531 -44.984375 101.4375 -39.296875 C 100.238281 -33.617188 98.359375 -28.234375 95.796875 -23.140625 C 93.242188 -18.046875 90.132812 -13.59375 86.46875 -9.78125 C 82.8125 -5.96875 78.320312 -2.9375 73 -0.6875 C 67.675781 1.5625 61.867188 2.6875 55.578125 2.6875 C 40.585938 2.6875 28.804688 -2.53125 20.234375 -12.96875 C 11.660156 -23.414062 7.375 -37.234375 7.375 -54.421875 Z M 27.9375 -56.109375 C 27.9375 -46.035156 28.9375 -36.941406 30.9375 -28.828125 C 32.9375 -20.710938 36.019531 -14.132812 40.1875 -9.09375 C 44.351562 -4.050781 49.332031 -1.53125 55.125 -1.53125 C 63.71875 -1.53125 70.457031 -6.519531 75.34375 -16.5 C 80.226562 -26.476562 82.671875 -39.734375 82.671875 -56.265625 C 82.671875 -73.460938 80.28125 -86.382812 75.5 -95.03125 C 70.71875 -103.6875 64.078125 -108.015625 55.578125 -108.015625 C 52.609375 -108.015625 49.78125 -107.398438 47.09375 -106.171875 C 44.40625 -104.941406 41.882812 -102.96875 39.53125 -100.25 C 37.175781 -97.539062 35.15625 -94.203125 33.46875 -90.234375 C 31.78125 -86.273438 30.4375 -81.375 29.4375 -75.53125 C 28.4375 -69.695312 27.9375 -63.222656 27.9375 -56.109375 Z M 27.9375 -56.109375 "/></g></g></g><g fill="#f96806" fill-opacity="1"><g transform="translate(686.815144, 235.747898)"><g><path d="M 5.609375 0 L 5.609375 -3.453125 L 17.421875 -4.21875 L 17.421875 -105.328125 L 5.609375 -106.09375 L 5.609375 -109.546875 L 38.453125 -109.546875 L 70.46875 -27.859375 L 70.625 -27.859375 L 100.71875 -109.546875 L 132.1875 -109.546875 L 132.1875 -106.09375 L 120.375 -105.328125 L 120.375 -4.21875 L 132.1875 -3.453125 L 132.1875 0 L 88.890625 0 L 88.890625 -3.453125 L 100.71875 -4.21875 L 100.875 -98.109375 L 100.71875 -98.109375 L 64.25 1.53125 L 61.40625 1.53125 L 20.875 -101.71875 L 20.734375 -101.71875 L 21.875 -4.21875 L 33.46875 -3.453125 L 33.46875 0 Z M 5.609375 0 "/></g></g></g><g fill="#002a5c" fill-opacity="1"><g transform="translate(825.484472, 235.747898)"><g><path d="M 5.609375 0 L 5.609375 -3.453125 L 17.421875 -4.21875 L 17.421875 -105.328125 L 5.609375 -106.09375 L 5.609375 -109.546875 L 46.515625 -109.546875 C 52.203125 -109.546875 57.332031 -109.054688 61.90625 -108.078125 C 66.488281 -107.109375 70.582031 -105.570312 74.1875 -103.46875 C 77.800781 -101.375 80.59375 -98.546875 82.5625 -94.984375 C 84.53125 -91.429688 85.515625 -87.226562 85.515625 -82.375 C 85.515625 -73.625 82.570312 -66.800781 76.6875 -61.90625 C 70.800781 -57.019531 62.84375 -53.863281 52.8125 -52.4375 L 52.8125 -52.28125 C 57.113281 -52.226562 60.835938 -51.535156 63.984375 -50.203125 C 67.128906 -48.867188 69.632812 -47.164062 71.5 -45.09375 C 73.375 -43.019531 75.15625 -40.347656 76.84375 -37.078125 C 77.96875 -34.828125 79.566406 -31.382812 81.640625 -26.75 C 83.710938 -22.125 85.773438 -18.019531 87.828125 -14.4375 C 89.460938 -11.519531 91.175781 -9.265625 92.96875 -7.671875 C 94.757812 -6.085938 96.269531 -5.113281 97.5 -4.75 C 98.726562 -4.394531 100.132812 -4.21875 101.71875 -4.21875 L 101.71875 0 L 88.96875 0 C 85.082031 0 82.015625 -0.238281 79.765625 -0.71875 C 77.515625 -1.207031 75.273438 -2.375 73.046875 -4.21875 C 70.816406 -6.0625 68.832031 -8.609375 67.09375 -11.859375 C 65.351562 -15.109375 62.382812 -21.898438 58.1875 -32.234375 C 57.570312 -33.773438 56.6875 -35.757812 55.53125 -38.1875 C 54.382812 -40.625 53.390625 -42.46875 52.546875 -43.71875 C 51.703125 -44.96875 50.703125 -46.285156 49.546875 -47.671875 C 48.398438 -49.054688 47.222656 -50.039062 46.015625 -50.625 C 44.816406 -51.21875 43.550781 -51.515625 42.21875 -51.515625 C 39.96875 -51.515625 38.253906 -51.488281 37.078125 -51.4375 L 37.078125 -4.21875 L 48.90625 -3.453125 L 48.90625 0 Z M 37.078125 -55.8125 C 37.640625 -55.757812 38.6875 -55.734375 40.21875 -55.734375 C 49.332031 -55.734375 55.742188 -57.945312 59.453125 -62.375 C 63.160156 -66.800781 65.015625 -73.414062 65.015625 -82.21875 C 65.015625 -86.613281 64.488281 -90.347656 63.4375 -93.421875 C 62.394531 -96.492188 60.898438 -98.875 58.953125 -100.5625 C 57.015625 -102.25 54.867188 -103.453125 52.515625 -104.171875 C 50.160156 -104.890625 47.472656 -105.25 44.453125 -105.25 C 42.453125 -105.25 39.992188 -105.046875 37.078125 -104.640625 Z M 37.078125 -55.8125 "/></g></g></g><g fill="#002a5c" fill-opacity="1"><g transform="translate(925.366681, 235.747898)"><g><path d="M 5.609375 0 L 5.609375 -3.453125 L 17.421875 -4.21875 L 17.421875 -105.328125 L 5.609375 -106.09375 L 5.609375 -109.546875 L 81.21875 -109.546875 L 81.984375 -78.296875 L 78.765625 -78.296875 C 78.148438 -81.773438 77.492188 -84.726562 76.796875 -87.15625 C 76.109375 -89.59375 75.125 -92.039062 73.84375 -94.5 C 72.570312 -96.957031 71.078125 -98.914062 69.359375 -100.375 C 67.640625 -101.832031 65.4375 -103.019531 62.75 -103.9375 C 60.070312 -104.863281 56.96875 -105.328125 53.4375 -105.328125 C 49.082031 -105.328125 43.628906 -105.070312 37.078125 -104.5625 L 37.078125 -58.953125 C 38.609375 -58.804688 41.398438 -58.734375 45.453125 -58.734375 C 50.816406 -58.734375 54.648438 -60.050781 56.953125 -62.6875 C 59.265625 -65.320312 60.421875 -70.117188 60.421875 -77.078125 L 64.640625 -77.078125 L 64.640625 -35.84375 L 60.421875 -35.84375 C 60.421875 -42.8125 59.253906 -47.660156 56.921875 -50.390625 C 54.597656 -53.128906 50.773438 -54.5 45.453125 -54.5 C 41.503906 -54.5 38.710938 -54.425781 37.078125 -54.28125 L 37.078125 -4.984375 C 43.628906 -4.472656 50.128906 -4.21875 56.578125 -4.21875 C 59.597656 -4.21875 62.257812 -4.460938 64.5625 -4.953125 C 66.863281 -5.441406 68.859375 -6.25 70.546875 -7.375 C 72.234375 -8.5 73.664062 -9.765625 74.84375 -11.171875 C 76.019531 -12.578125 77.054688 -14.378906 77.953125 -16.578125 C 78.847656 -18.773438 79.578125 -20.972656 80.140625 -23.171875 C 80.703125 -25.378906 81.289062 -28.097656 81.90625 -31.328125 L 85.21875 -31.328125 L 84.359375 0 Z M 5.609375 0 "/></g></g></g><g fill="#002a5c" fill-opacity="1"><g transform="translate(1019.185124, 235.747898)"><g><path d="M 5.609375 0 L 5.609375 -3.453125 L 17.421875 -4.21875 L 17.421875 -105.328125 L 5.609375 -106.09375 L 5.609375 -109.546875 L 47.28125 -109.546875 C 52.914062 -109.546875 58.125 -108.941406 62.90625 -107.734375 C 67.695312 -106.535156 72.007812 -104.71875 75.84375 -102.28125 C 79.6875 -99.851562 82.691406 -96.601562 84.859375 -92.53125 C 87.035156 -88.46875 88.125 -83.773438 88.125 -78.453125 C 88.125 -73.546875 87.289062 -69.117188 85.625 -65.171875 C 83.96875 -61.234375 81.726562 -57.929688 78.90625 -55.265625 C 76.09375 -52.609375 72.703125 -50.394531 68.734375 -48.625 C 64.773438 -46.863281 60.582031 -45.585938 56.15625 -44.796875 C 51.726562 -44.003906 47.03125 -43.609375 42.0625 -43.609375 C 40.988281 -43.609375 39.328125 -43.65625 37.078125 -43.75 L 37.078125 -4.21875 L 48.90625 -3.453125 L 48.90625 0 Z M 37.078125 -48.140625 C 38.867188 -47.984375 40.6875 -47.90625 42.53125 -47.90625 C 59.3125 -47.90625 67.703125 -58.140625 67.703125 -78.609375 C 67.703125 -83.578125 67.140625 -87.8125 66.015625 -91.3125 C 64.890625 -94.820312 63.265625 -97.535156 61.140625 -99.453125 C 59.015625 -101.367188 56.660156 -102.75 54.078125 -103.59375 C 51.492188 -104.4375 48.539062 -104.859375 45.21875 -104.859375 C 42.707031 -104.859375 39.992188 -104.65625 37.078125 -104.25 Z M 37.078125 -48.140625 "/></g></g></g><g fill="#002a5c" fill-opacity="1"><g transform="translate(1112.773343, 235.747898)"><g><path d="M 7.375 -54.421875 C 7.375 -64.960938 9.265625 -74.582031 13.046875 -83.28125 C 16.835938 -91.988281 22.40625 -98.988281 29.75 -104.28125 C 37.09375 -109.582031 45.550781 -112.234375 55.125 -112.234375 C 69.550781 -112.234375 81.175781 -107.140625 90 -96.953125 C 98.832031 -86.773438 103.25 -73.421875 103.25 -56.890625 C 103.25 -50.847656 102.644531 -44.984375 101.4375 -39.296875 C 100.238281 -33.617188 98.359375 -28.234375 95.796875 -23.140625 C 93.242188 -18.046875 90.132812 -13.59375 86.46875 -9.78125 C 82.8125 -5.96875 78.320312 -2.9375 73 -0.6875 C 67.675781 1.5625 61.867188 2.6875 55.578125 2.6875 C 40.585938 2.6875 28.804688 -2.53125 20.234375 -12.96875 C 11.660156 -23.414062 7.375 -37.234375 7.375 -54.421875 Z M 27.9375 -56.109375 C 27.9375 -46.035156 28.9375 -36.941406 30.9375 -28.828125 C 32.9375 -20.710938 36.019531 -14.132812 40.1875 -9.09375 C 44.351562 -4.050781 49.332031 -1.53125 55.125 -1.53125 C 63.71875 -1.53125 70.457031 -6.519531 75.34375 -16.5 C 80.226562 -26.476562 82.671875 -39.734375 82.671875 -56.265625 C 82.671875 -73.460938 80.28125 -86.382812 75.5 -95.03125 C 70.71875 -103.6875 64.078125 -108.015625 55.578125 -108.015625 C 52.609375 -108.015625 49.78125 -107.398438 47.09375 -106.171875 C 44.40625 -104.941406 41.882812 -102.96875 39.53125 -100.25 C 37.175781 -97.539062 35.15625 -94.203125 33.46875 -90.234375 C 31.78125 -86.273438 30.4375 -81.375 29.4375 -75.53125 C 28.4375 -69.695312 27.9375 -63.222656 27.9375 -56.109375 Z M 27.9375 -56.109375 "/></g></g></g><g fill="#002a5c" fill-opacity="1"><g transform="translate(1224.322471, 235.747898)"><g><path d="M 5.609375 0 L 5.609375 -3.453125 L 17.421875 -4.21875 L 17.421875 -105.328125 L 5.609375 -106.09375 L 5.609375 -109.546875 L 46.515625 -109.546875 C 52.203125 -109.546875 57.332031 -109.054688 61.90625 -108.078125 C 66.488281 -107.109375 70.582031 -105.570312 74.1875 -103.46875 C 77.800781 -101.375 80.59375 -98.546875 82.5625 -94.984375 C 84.53125 -91.429688 85.515625 -87.226562 85.515625 -82.375 C 85.515625 -73.625 82.570312 -66.800781 76.6875 -61.90625 C 70.800781 -57.019531 62.84375 -53.863281 52.8125 -52.4375 L 52.8125 -52.28125 C 57.113281 -52.226562 60.835938 -51.535156 63.984375 -50.203125 C 67.128906 -48.867188 69.632812 -47.164062 71.5 -45.09375 C 73.375 -43.019531 75.15625 -40.347656 76.84375 -37.078125 C 77.96875 -34.828125 79.566406 -31.382812 81.640625 -26.75 C 83.710938 -22.125 85.773438 -18.019531 87.828125 -14.4375 C 89.460938 -11.519531 91.175781 -9.265625 92.96875 -7.671875 C 94.757812 -6.085938 96.269531 -5.113281 97.5 -4.75 C 98.726562 -4.394531 100.132812 -4.21875 101.71875 -4.21875 L 101.71875 0 L 88.96875 0 C 85.082031 0 82.015625 -0.238281 79.765625 -0.71875 C 77.515625 -1.207031 75.273438 -2.375 73.046875 -4.21875 C 70.816406 -6.0625 68.832031 -8.609375 67.09375 -11.859375 C 65.351562 -15.109375 62.382812 -21.898438 58.1875 -32.234375 C 57.570312 -33.773438 56.6875 -35.757812 55.53125 -38.1875 C 54.382812 -40.625 53.390625 -42.46875 52.546875 -43.71875 C 51.703125 -44.96875 50.703125 -46.285156 49.546875 -47.671875 C 48.398438 -49.054688 47.222656 -50.039062 46.015625 -50.625 C 44.816406 -51.21875 43.550781 -51.515625 42.21875 -51.515625 C 39.96875 -51.515625 38.253906 -51.488281 37.078125 -51.4375 L 37.078125 -4.21875 L 48.90625 -3.453125 L 48.90625 0 Z M 37.078125 -55.8125 C 37.640625 -55.757812 38.6875 -55.734375 40.21875 -55.734375 C 49.332031 -55.734375 55.742188 -57.945312 59.453125 -62.375 C 63.160156 -66.800781 65.015625 -73.414062 65.015625 -82.21875 C 65.015625 -86.613281 64.488281 -90.347656 63.4375 -93.421875 C 62.394531 -96.492188 60.898438 -98.875 58.953125 -100.5625 C 57.015625 -102.25 54.867188 -103.453125 52.515625 -104.171875 C 50.160156 -104.890625 47.472656 -105.25 44.453125 -105.25 C 42.453125 -105.25 39.992188 -105.046875 37.078125 -104.640625 Z M 37.078125 -55.8125 "/></g></g></g><g fill="#002a5c" fill-opacity="1"><g transform="translate(1324.204666, 235.747898)"><g><path d="M 4.609375 -71.9375 L 5.375 -109.546875 L 89.203125 -109.546875 L 89.96875 -72 L 85.75 -72 C 85.03125 -75.945312 84.398438 -79.125 83.859375 -81.53125 C 83.328125 -83.9375 82.675781 -86.46875 81.90625 -89.125 C 81.144531 -91.789062 80.351562 -93.863281 79.53125 -95.34375 C 78.707031 -96.832031 77.707031 -98.316406 76.53125 -99.796875 C 75.351562 -101.273438 74.007812 -102.359375 72.5 -103.046875 C 70.988281 -103.742188 69.234375 -104.3125 67.234375 -104.75 C 65.242188 -105.1875 62.945312 -105.40625 60.34375 -105.40625 C 60.132812 -105.40625 59.707031 -105.390625 59.0625 -105.359375 C 58.425781 -105.335938 57.851562 -105.328125 57.34375 -105.328125 L 57.34375 -4.21875 L 69.25 -3.453125 L 69.25 0 L 25.953125 0 L 25.953125 -3.453125 L 37.6875 -4.21875 L 37.234375 -105.25 C 36.722656 -105.25 36.144531 -105.257812 35.5 -105.28125 C 34.863281 -105.3125 34.441406 -105.328125 34.234375 -105.328125 C 31.929688 -105.328125 29.882812 -105.195312 28.09375 -104.9375 C 26.300781 -104.6875 24.675781 -104.203125 23.21875 -103.484375 C 21.757812 -102.765625 20.492188 -101.992188 19.421875 -101.171875 C 18.347656 -100.359375 17.347656 -99.179688 16.421875 -97.640625 C 15.503906 -96.109375 14.722656 -94.625 14.078125 -93.1875 C 13.441406 -91.757812 12.773438 -89.800781 12.078125 -87.3125 C 11.390625 -84.832031 10.304688 -79.707031 8.828125 -71.9375 Z M 4.609375 -71.9375 "/></g></g></g></svg>